<?xml version="1.0" encoding="utf-8"?>
<!DOCTYPE svg PUBLIC "-//W3C//DTD SVG 20010904//EN" "http://www.w3.org/TR/2001/REC-SVG-20010904/DTD/svg10.dtd">
<svg version="1.0" xmlns="http://www.w3.org/2000/svg" width="67px" height="48px" viewBox="0 0 67 48" preserveAspectRatio="xMidYMid meet">
 <g fill="#020202">
  <path d="M0 24 l0 -24 33.5 0 33.5 0 0 24 0 24 -33.5 0 -33.5 0 0 -24z m60.8 -2.3 l0.2 -16.8 -7.2 0.3 -7.3 0.3 -0.3 15.9 c-0.2 12.1 0.1 16.2 1 16.8 0.7 0.4 4 0.7 7.3 0.6 l6 -0.3 0.3 -16.8z m-23.6 5.6 c1.5 -1.3 1.8 -3.2 1.8 -10.4 0 -12.1 0.2 -11.9 -16.7 -11.9 -17.3 0 -17.3 0 -17.3 11.8 0 12.2 0 12.2 16.8 12.2 11.2 0 13.9 -0.3 15.4 -1.7z"/>
 </g>
 <g fill="#181819">
  <path d="M11.6 41.1 c-0.7 -1.1 1.1 -2.7 4.7 -4 1.5 -0.6 2.7 -1.7 2.7 -2.6 0 -1 1 -1.5 3 -1.5 1.7 0 3 0.5 3 1.3 0 0.6 1.7 2.1 3.7 3.2 2 1.1 3.7 2.5 3.7 3 0.1 1.3 -20 1.9 -20.8 0.6z"/>
  <path d="M44.3 41.3 c-0.7 -0.2 -1.3 -1.4 -1.3 -2.5 0 -1.8 0.4 -2 3.1 -1.4 1.7 0.3 4.9 0.6 7 0.6 3.2 0 3.9 0.3 3.9 2 0 1.8 -0.6 2 -5.7 1.9 -3.2 0 -6.4 -0.3 -7 -0.6z"/>
  <path d="M37 6 c0 -0.6 -3.5 -1 -8.5 -1 -6.9 0 -8.5 -0.3 -8.5 -1.5 0 -1.6 0.3 -1.7 10 -2 6.4 -0.1 9.8 0.7 11.2 2.9 1.3 1.9 0.9 2.6 -1.7 2.6 -1.4 0 -2.5 -0.4 -2.5 -1z"/>
 </g>
 <g fill="#32343c">
  <path d="M20.8 41.2 c-1 -0.2 -1.8 -1 -1.8 -1.8 0 -2.3 12.4 -1.6 12.8 0.7 0.2 1.3 -0.6 1.6 -4.5 1.5 -2.6 0 -5.6 -0.2 -6.5 -0.4z"/>
  <path d="M52.8 41.3 c-1 -0.2 -1.8 -1.1 -1.8 -1.9 0 -0.9 -1.1 -1.4 -3 -1.4 -3 0 -3 -0.1 -3 -5.5 l0 -5.5 8.5 0 8.5 0 0 5.4 c0 3.3 0.5 5.6 1.2 5.8 1.8 0.6 0.1 3.8 -2.1 3.8 -1.2 0 -2.1 -0.8 -2.4 -2.2 l-0.4 -2.3 -0.2 2.3 c-0.1 2.2 -1.4 2.6 -5.3 1.5z"/>
  <path d="M12 40 c0 -0.9 3.1 -3 4.4 -3 0.3 0 0.6 0.9 0.6 2 0 1.5 -0.7 2 -2.5 2 -1.4 0 -2.5 -0.4 -2.5 -1z"/>
  <path d="M3.4 29.9 c-1.6 -1.8 -1.9 -4.9 -0.4 -4.9 0.6 0 1 -4.3 1 -10.9 0 -10.4 0.1 -10.9 2.3 -11.5 1.2 -0.3 9 -0.6 17.3 -0.6 14.2 0 15.2 0.1 17 2.1 1.4 1.6 1.5 2.3 0.7 2.6 -1 0.3 -1.3 3.7 -1.3 11.9 0 8.3 -0.3 11.6 -1.2 11.9 -0.7 0.2 -8.6 0.5 -17.6 0.7 -13.9 0.3 -16.6 0.1 -17.8 -1.3z m29.1 -13.4 l0 -7 -10.5 0 -10.5 0 -0.3 5.9 c-0.5 8.9 -0.7 8.7 11 8.4 l10.3 -0.3 0 -7z"/>
  <path d="M43.2 4.8 c0.5 -3.4 3.8 -3.7 3.8 -0.4 0 2 -0.5 2.6 -2.1 2.6 -1.5 0 -2 -0.5 -1.7 -2.2z"/>
  <path d="M60 4 c0 -1.3 0.7 -2 2 -2 1.3 0 2 0.7 2 2 0 1.3 -0.7 2 -2 2 -1.3 0 -2 -0.7 -2 -2z"/>
 </g>
 <g fill="#47484c">
  <path d="M54 41.3 c-0.8 -0.3 -1.9 -1.2 -2.3 -1.9 -1.1 -1.9 -4.7 -1.8 -4.7 0.2 0 0.9 -0.7 1.4 -1.7 1.2 -1.6 -0.3 -1.8 -2.1 -2.1 -17.3 -0.3 -18.9 0 -21.5 2.6 -21.5 1.6 0 1.8 1 1.4 12.7 l-0.5 12.6 3.3 -0.6 c1.8 -0.4 4.8 -0.7 6.8 -0.7 l3.5 0 -0.5 -12.1 c-0.5 -11.8 -0.5 -12 1.6 -11.7 2 0.3 2.1 0.8 2.4 19.2 0.2 14.5 -0.1 19.1 -1 19.8 -1.5 0.9 -6.5 0.9 -8.8 0.1z m2.8 -7 c-1.5 -0.2 -4.2 -0.2 -6 0 -1.8 0.2 -0.6 0.4 2.7 0.4 3.3 0 4.8 -0.2 3.3 -0.4z m0 -4 c-1.5 -0.2 -4.2 -0.2 -6 0 -1.8 0.2 -0.6 0.4 2.7 0.4 3.3 0 4.8 -0.2 3.3 -0.4z"/>
  <path d="M12 40.4 c0 -1.2 3.4 -3.3 5.3 -3.4 1 0 1.7 0.7 1.7 2 0 1.6 -0.7 2 -3.5 2 -1.9 0 -3.5 -0.3 -3.5 -0.6z"/>
  <path d="M23.6 36.4 c-1.2 -8.7 -1.4 -8.4 5.8 -8.4 3.6 0 6.8 -0.5 7.1 -1.1 0.4 -0.6 0.9 -4.5 1.2 -8.7 0.5 -8.2 -0.7 -13.2 -3.2 -13.2 -0.8 0 -1.5 -0.7 -1.5 -1.5 0 -2 3.9 -1.9 6.8 0.1 2.1 1.4 2.2 2.3 2.2 13.3 0 14.5 -0.4 15.1 -10.3 15.1 -6.3 0 -6.7 0.1 -6.7 2.3 0 1.7 0.8 2.5 3.2 3.2 4.8 1.5 4.8 3.5 0 3.5 -3.9 0 -3.9 0 -4.6 -4.6z"/>
  <path d="M3 29.1 c-0.5 -1.1 -1 -6.9 -1 -12.9 0 -12.4 0.9 -14.2 7.3 -14.2 3.9 0 5.3 2.4 2 3.3 -1.7 0.4 -1.7 0.5 0 0.6 2.8 0.2 2 3.1 -0.9 3.1 -1.9 0 -2.5 -0.4 -2 -1.5 0.3 -0.8 0.2 -1.5 -0.3 -1.5 -1.3 0 -2.1 3.9 -2 10 0.2 9.1 1 11.5 4.2 11.8 5.1 0.6 2.4 3.2 -3.3 3.2 -1.9 0 -3.3 -0.7 -4 -1.9z"/>
  <path d="M8.7 26.3 c-0.4 -0.3 -0.7 -1.5 -0.7 -2.5 0 -1.4 0.6 -1.9 2.3 -1.6 2.9 0.4 3.8 4.8 0.9 4.8 -1 0 -2.2 -0.3 -2.5 -0.7z"/>
  <path d="M31.2 24.8 c0.2 -1.5 1.1 -2.4 2.6 -2.6 2 -0.3 2.3 0 2 2 -0.2 1.5 -1.1 2.4 -2.6 2.6 -2 0.3 -2.3 0 -2 -2z"/>
  <path d="M33 7.4 c0 -1.7 2.2 -1.4 2.8 0.4 0.2 0.7 -0.3 1.2 -1.2 1.2 -0.9 0 -1.6 -0.7 -1.6 -1.6z"/>
  <path d="M22.3 6.3 c1.5 -0.2 3.9 -0.2 5.5 0 1.5 0.2 0.2 0.4 -2.8 0.4 -3 0 -4.3 -0.2 -2.7 -0.4z"/>
  <path d="M51 4.5 c0 -2.2 0.4 -2.5 3.5 -2.5 3.1 0 3.5 0.3 3.5 2.5 0 2.2 -0.4 2.5 -3.5 2.5 -3.1 0 -3.5 -0.3 -3.5 -2.5z"/>
  <path d="M20 3.5 c0 -1.1 1.2 -1.5 5 -1.5 3.8 0 5 0.4 5 1.5 0 1.1 -1.2 1.5 -5 1.5 -3.8 0 -5 -0.4 -5 -1.5z"/>
 </g>
 <g fill="#57585b">
  <path d="M13 39.9 c0 -0.6 1.4 -1.6 3 -2.2 2.1 -0.8 3 -1.8 3 -3.4 0 -2.1 -0.4 -2.3 -6.1 -2.3 -3.3 0 -6.9 -0.5 -8 -1 -2 -1.1 -2.7 -5 -0.9 -5 1.3 0 1.3 -15.1 -0.1 -18.7 -0.8 -2.3 -0.7 -3 0.7 -4 2.4 -1.7 6.1 -1.6 6.7 0.1 0.4 1 -0.2 1.6 -1.6 1.8 -2.1 0.3 -2.2 0.8 -2.5 11.6 l-0.3 11.2 15.1 0 15 0 0 -11.5 0 -11.5 -9 0 c-7.3 0 -9 -0.3 -9 -1.5 0 -1.2 1.7 -1.5 9.1 -1.5 13.3 0 12.9 -0.5 12.9 15.1 0 14.8 0.5 14.1 -9.3 14.3 -6 0.1 -6.2 0.2 -6.5 2.8 -0.3 2.2 0.2 2.9 2.2 3.4 1.4 0.3 3 1.2 3.7 2 1 1.2 -0.3 1.4 -8.5 1.4 -6.2 0 -9.6 -0.4 -9.6 -1.1z"/>
  <path d="M50.5 39 c-0.4 -1.3 -1.5 -2 -3.1 -2 -2.2 0 -2.4 -0.3 -2.4 -5.5 0 -5.4 0 -5.5 3 -5.5 l3 0 0 -12 0 -12.1 6.1 0.3 6.2 0.3 0.1 19.3 0.1 19.2 -6.2 0 c-5.3 0 -6.3 -0.3 -6.8 -2z m9 -3.9 c1 -1.7 -1.3 -2.1 -7.2 -1.4 l-5.8 0.8 4 0.6 c6.3 1 8.3 1 9 0z m0 -4 c1 -1.7 -1.3 -2.1 -7.2 -1.4 l-5.8 0.8 4 0.6 c6.3 1 8.3 1 9 0z"/>
  <path d="M9.1 25.6 c-0.8 -0.9 -1.1 -4.6 -0.9 -10.2 0.3 -7.5 0.6 -8.9 2.1 -9.2 1.5 -0.3 1.7 0.7 1.7 10.2 0 10.3 -0.5 12.1 -2.9 9.2z"/>
  <path d="M19 26 c0 -0.6 3.2 -1 7.5 -1 l7.5 0 0 -7 c0 -4 -0.4 -7 -1 -7 -0.5 0 -1 -0.7 -1 -1.5 0 -1.2 -1.3 -1.5 -5.9 -1.5 -3.3 0 -6.3 -0.5 -6.6 -1 -0.5 -0.7 2.1 -1 7.7 -0.8 l8.3 0.3 0.3 8.8 c0.2 5.7 -0.1 9.4 -0.9 10.3 -1.4 1.7 -15.9 2 -15.9 0.4z"/>
  <path d="M43.8 8.3 c-0.6 -2.8 0.2 -5.3 1.8 -5.3 0.9 0 1.4 1.1 1.4 3.5 0 3.7 -2.4 5 -3.2 1.8z"/>
 </g>
 <g fill="#884f4a">
  <path d="M51.6 13.9 c-1.5 -7.5 0.5 -10.9 3.2 -5.2 1.5 3.3 1.6 5.3 0.2 5.3 -0.5 0 -1 0.7 -1 1.5 0 2.7 -1.7 1.5 -2.4 -1.6z"/>
 </g>
 <g fill="#636469">
  <path d="M14 39.6 c0 -0.8 1.1 -1.7 2.5 -2 1.8 -0.5 2.5 -1.3 2.5 -3.1 0 -3.4 -4.1 -5.1 -9.2 -3.8 -3.2 0.9 -4 0.7 -5.4 -0.8 -1.7 -1.8 -1.4 -1.9 7.9 -1.9 l9.7 0 0 5.9 0 6 5.3 0.4 c3.3 0.2 1.9 0.4 -4 0.5 -7.4 0.2 -9.3 -0.1 -9.3 -1.2z"/>
  <path d="M51 40 c0 -0.5 -1.6 -1 -3.5 -1 l-3.5 0 0 -6.5 0 -6.5 3.5 0 c1.9 0 3.5 0.4 3.5 0.9 0 0.5 0.8 1.2 1.8 1.4 0.9 0.3 0.3 0.5 -1.5 0.6 -4.1 0.1 -5.4 2.1 -1.4 2.1 1.6 0 3.3 0.5 3.6 1 0.4 0.6 -0.6 1 -2.4 1 -4.1 0 -4.9 1.8 -0.9 2.2 2.4 0.2 3.4 0.9 3.7 2.3 0.2 1.1 0.8 2.3 1.5 2.7 0.6 0.4 -0.1 0.8 -1.6 0.8 -1.6 0 -2.8 -0.4 -2.8 -1z"/>
  <path d="M9.7 26.3 c-0.4 -0.3 -0.7 -1.2 -0.7 -2 0 -1 2.6 -1.3 11.5 -1.3 l11.5 0 0 -6 c0 -3.3 -0.4 -6 -1 -6 -0.5 0 -1 -1.1 -1 -2.5 0 -2 0.5 -2.5 2.4 -2.5 1.3 0 2.7 0.7 3 1.6 1.1 2.9 0.7 16.9 -0.6 18.2 -1.3 1.3 -23.9 1.8 -25.1 0.5z"/>
  <path d="M9 8.5 c0 -2 0.5 -2.5 2.5 -2.5 2 0 2.5 0.5 2.5 2.5 0 2 -0.5 2.5 -2.5 2.5 -2 0 -2.5 -0.5 -2.5 -2.5z"/>
  <path d="M6.1 9.3 c0 -0.7 -0.8 -1.3 -1.6 -1.3 -1.8 0 -2 -3.6 -0.3 -4.6 1.6 -1 8 -0.6 9.2 0.6 0.7 0.7 -0.2 1 -2.6 1 -3.2 0 -3.7 0.3 -4.1 2.8 -0.2 1.5 -0.5 2.1 -0.6 1.5z"/>
  <path d="M19 7 c0 -0.5 1.6 -1 3.5 -1 1.9 0 3.5 0.5 3.5 1 0 0.6 -1.6 1 -3.5 1 -1.9 0 -3.5 -0.4 -3.5 -1z"/>
  <path d="M47.2 6.3 c-2.5 -0.3 -3.2 -0.9 -3 -2.1 0.3 -1.4 1.8 -1.7 9.2 -2 4.9 -0.2 9.3 0.1 9.7 0.5 0.4 0.4 -1.4 0.6 -4.1 0.5 -4.5 -0.4 -5 -0.2 -5 1.7 0 2.2 -0.1 2.2 -6.8 1.4z"/>
  <path d="M19 3.5 c0 -1.1 1 -1.5 3.8 -1.4 2.3 0.1 2.9 0.3 1.4 0.6 -1.2 0.2 -2 0.9 -1.7 1.4 0.4 0.5 -0.3 0.9 -1.4 0.9 -1.2 0 -2.1 -0.7 -2.1 -1.5z"/>
 </g>
 <g fill="#c24034">
  <path d="M51 12 c0 -5.5 1.7 -6.7 3.7 -2.5 0.8 1.9 0.8 3.1 0 5 -2 4.2 -3.7 3 -3.7 -2.5z"/>
 </g>
 <g fill="#808084">
  <path d="M13 39.6 c0.6 -0.8 2.1 -1.6 3.3 -1.8 1.7 -0.2 2.3 -1.1 2.5 -3.5 l0.3 -3.3 -6.8 0 c-4 0 -7.4 -0.5 -8.1 -1.2 -0.8 -0.8 -1.2 -5.1 -1.2 -12.9 0 -15.5 -0.7 -15 19.5 -14.7 8.3 0.1 11.5 0.4 7.3 0.5 -4.3 0.2 -7.8 0.8 -7.8 1.3 0 0.6 -3.4 1 -7.5 1 l-7.5 0 0 11.5 0 11.5 7.5 0 7.5 0 0 6.5 0 6.5 -5.1 0 c-4.4 0 -5 -0.2 -3.9 -1.4z"/>
  <path d="M44 21.9 l0 -19 4.8 0.3 4.7 0.3 0.3 12.8 0.3 12.7 -3.6 0 c-5 0 -4.8 2.7 0.3 3.3 l3.7 0.4 -3.7 0.1 c-5.1 0.3 -5.4 3.2 -0.3 3.2 3.1 0 3.5 0.3 3.5 2.5 0 2.3 -0.3 2.5 -5 2.5 l-5 0 0 -19.1z"/>
  <path d="M9.2 16.3 l0.3 -9.8 12.5 0 c12.4 0 12.5 0 12.8 2.4 0.4 2.3 0.3 2.4 -5.2 1.7 -3.1 -0.3 -8.7 -0.3 -12.6 0 l-7 0.7 0 6.8 0 6.8 7.8 0.4 7.7 0.3 -8.3 0.2 -8.3 0.2 0.3 -9.7z"/>
 </g>
 <g fill="#d86f64">
  <path d="M51.4 12.9 c-0.3 -0.6 0.1 -1.8 1 -2.7 1.5 -1.5 1.6 -1.4 1.6 1.1 0 2.7 -1.3 3.6 -2.6 1.6z"/>
 </g>
 <g fill="#9b9c9b">
  <path d="M9 9.9 c0 -1.2 1.4 -1.8 5.3 -2.3 11.7 -1.4 20.7 -0.4 20.7 2.3 0 1.4 -1.7 1.6 -13 1.6 -11.3 0 -13 -0.2 -13 -1.6z"/>
 </g>
 <g fill="#95c5bc">
  <path d="M10.2 24.8 c-0.7 -0.7 -1.2 -3.1 -1.2 -5.5 l0 -4.3 13 0 13 0 0 4.5 c0 3.4 -0.5 4.7 -1.9 5.5 -2.8 1.4 -21.4 1.3 -22.9 -0.2z"/>
  <path d="M14 11 l0 -3 6.5 0 6.5 0 0 3 0 3 -6.5 0 -6.5 0 0 -3z"/>
 </g>
 <g fill="#b7b9bc">
  <path d="M9 24 c0 -1.3 0.7 -2 2 -2 1.3 0 2 0.7 2 2 0 1.3 -0.7 2 -2 2 -1.3 0 -2 -0.7 -2 -2z"/>
  <path d="M31 24 c0 -1.3 0.7 -2 2 -2 1.3 0 2 0.7 2 2 0 1.3 -0.7 2 -2 2 -1.3 0 -2 -0.7 -2 -2z"/>
  <path d="M9 10.4 c0 -2.3 0.1 -2.3 13 -2.3 12.7 0 13 0.1 13 2.2 0 2.1 -0.3 2.2 -13 2.3 -12.9 0.1 -13 0.1 -13 -2.2z m15 -0.5 c0 -1.2 -5.7 -1.2 -6.4 0 -0.3 0.5 1 0.9 2.9 0.9 1.9 0 3.5 -0.4 3.5 -0.9z"/>
 </g>
 <g fill="#aedace">
  <path d="M26 24.7 c0 -0.7 1.4 -1.8 3 -2.4 1.7 -0.6 3 -1.8 3 -2.7 0 -1.4 -1.5 -1.6 -10 -1.6 -8.2 0 -10 0.3 -10 1.5 0 0.8 0.9 2 2 2.7 2.9 1.9 2.4 2.8 -1.5 2.8 l-3.5 0 0 -5.3 c0 -4.6 0.4 -5.6 3.1 -8 2.9 -2.5 6.7 -3.8 5.5 -1.8 -0.3 0.5 1 0.9 2.9 0.9 1.9 0 3.5 -0.4 3.5 -0.9 0 -1.6 3.8 -1 7.4 1.2 3.2 1.8 3.6 2.6 3.6 6 0 2.1 -0.4 3.9 -1 3.9 -0.5 0 -1 1.1 -1 2.5 0 2.2 -0.4 2.5 -3.5 2.5 -2.2 0 -3.5 -0.5 -3.5 -1.3z"/>
 </g>
 <g fill="#dbe1e1">
  <path d="M9.7 25.4 c-0.4 -0.4 -0.7 -4 -0.7 -8.1 0 -6.9 0.1 -7.3 2.3 -7.3 1.2 0 3.2 -0.3 4.4 -0.6 2.2 -0.6 2.2 -0.6 0.6 2.7 -0.9 1.9 -2.2 3.8 -3 4.2 -1.8 1.1 -1.6 5.4 0.3 6.1 2.9 1.1 16 0.6 17.2 -0.6 2.1 -2.1 1.4 -5.7 -1.3 -7 -1.4 -0.6 -3.2 -2.2 -4 -3.5 -1.5 -2.3 -1.5 -2.3 1.7 -2.3 7.6 0 7.9 0.4 7.6 8.9 l-0.3 7.6 -12.1 0.3 c-6.6 0.1 -12.3 -0.1 -12.7 -0.4z"/>
 </g>
 <g fill="#f0f1f3">
  <path d="M16.5 25 l-5.9 -0.5 -0.9 -4.4 c-1.2 -6.2 -0.3 -8.8 3.3 -9.3 2.7 -0.4 3 -0.2 2.4 1.6 -0.4 1.2 -1.5 2.9 -2.5 3.9 -1.1 1 -1.9 2.3 -1.9 3 0 2.9 2.5 3.7 11.2 3.7 7.8 0 8.9 -0.2 9.8 -2 1.5 -2.8 0.3 -5.9 -2.5 -6.6 -2.2 -0.5 -4.1 -3.1 -3.1 -4.2 0.3 -0.2 2.1 -0.1 4 0.2 4.1 0.8 4.9 2.6 3.6 8 -0.4 2.1 -0.6 4.4 -0.3 5.1 0.9 2.5 -2.4 2.8 -17.2 1.5z"/>
 </g>
</svg>